<svg width="80" height="80" viewBox="0 0 80 80" fill="none" xmlns="http://www.w3.org/2000/svg">
<path fill-rule="evenodd" clip-rule="evenodd" d="M59.6035 38.6116C59.6035 49.9047 50.6531 59.0596 39.6122 59.0596C28.5715 59.0596 19.6212 49.9047 19.6212 38.6116C19.6212 27.3183 28.5715 18.1632 39.6122 18.1632C50.6531 18.1632 59.6035 27.3183 59.6035 38.6116Z" fill="#D33833"/>
<path d="M20.4358 43.6759C20.4358 43.6759 18.9886 22.352 38.6372 21.7427L37.2665 19.458L26.6045 23.0374L23.5582 26.5406L20.8927 31.6432L19.3695 37.5835L19.8264 41.5436" fill="#EF3D3A"/>
<path d="M25.92 24.6623C22.4125 28.2511 20.242 33.2062 20.242 38.6879C20.242 44.1685 22.4125 49.1242 25.92 52.7124C29.4292 56.3006 34.2654 58.5147 39.6119 58.5147C44.9587 58.5147 49.7952 56.3006 53.3041 52.7124C56.8113 49.1242 58.9822 44.1685 58.9822 38.6879C58.9822 33.2062 56.8113 28.2511 53.3041 24.6623C49.7952 21.0749 44.9587 18.8607 39.6119 18.8603C34.2654 18.8607 29.4292 21.0749 25.92 24.6623ZM25.0322 53.5804C21.3045 49.7682 19 44.4996 19 38.6879C19 32.8754 21.3045 27.6073 25.0322 23.7948C28.7589 19.9816 33.9178 17.6181 39.6119 17.6188C45.3062 17.6181 50.4655 19.9816 54.1917 23.7948C57.9196 27.6073 60.2244 32.8759 60.224 38.6879C60.2244 44.4996 57.9196 49.7682 54.1917 53.5804C50.4655 57.3934 45.3062 59.7566 39.6119 59.7566C33.9178 59.7566 28.7589 57.3934 25.0322 53.5804Z" fill="#231F20"/>
<path fill-rule="evenodd" clip-rule="evenodd" d="M48.0275 38.7249L44.9811 39.1819L40.8685 39.6388L38.2029 39.7149L35.6137 39.6388L33.6335 39.0295L31.8819 37.1256L30.511 33.2416L30.2064 32.4038L28.3787 31.7947L27.3124 30.043L26.5509 27.5299L27.3887 25.3212L29.3687 24.6358L30.968 25.3975L31.7297 27.0729L32.6436 26.9205L32.9481 26.5399L32.6436 24.7882L32.5673 22.5796L33.0242 19.5334L33.0064 17.7933L34.395 15.5733L36.8321 13.8216L41.097 11.9938L45.8186 12.6792L49.9311 15.6493L51.8352 18.6956L53.0536 20.9042L53.3582 26.3875L52.4443 31.1093L50.7689 35.2979L49.1696 37.5065" fill="#F0D6B7"/>
<path fill-rule="evenodd" clip-rule="evenodd" d="M45.438 51.9L34.5474 52.3569V54.1847L35.4613 60.5819L35.0043 61.1151L27.3887 58.5256L26.8555 57.6118L26.0939 49.0062L24.3426 43.8274L23.9617 42.609L30.0541 38.4204L31.9582 37.6587L33.6335 39.7149L35.0804 41.0097L36.7561 41.5427L37.5175 41.7712L38.4314 45.7312L39.1168 46.569L40.8685 45.9597L39.6499 48.3207L46.2756 51.443L45.438 51.9Z" fill="#335061"/>
<path fill-rule="evenodd" clip-rule="evenodd" d="M27.3887 25.3212L29.3687 24.6358L30.968 25.3975L31.7297 27.0729L32.6436 26.9205L32.872 26.0066L32.4151 24.2552L32.872 20.0664L32.4911 17.7817L33.862 16.1824L36.8321 13.8216L35.9943 12.6792L31.8057 14.7355L30.0541 16.1063L29.0641 18.2386L27.5409 20.2949L27.084 22.732L27.3887 25.3212Z" fill="#6D6B6D"/>
<path fill-rule="evenodd" clip-rule="evenodd" d="M30.511 18.1625C30.511 18.1625 31.6534 15.3448 36.2228 13.974C40.7922 12.6031 36.4513 12.9838 36.4513 12.9838L31.5012 14.8879L29.5971 16.7917L28.7596 18.3149L30.511 18.1625Z" fill="#DCD9D8"/>
<path fill-rule="evenodd" clip-rule="evenodd" d="M28.2263 24.7882C28.2263 24.7882 26.627 19.457 32.7196 18.6956L32.4911 17.7817L28.3026 18.7719L27.084 22.732L27.3887 25.3212L28.2263 24.7882Z" fill="#DCD9D8"/>
<path fill-rule="evenodd" clip-rule="evenodd" d="M30.6634 31.8708L31.6605 30.9046C31.6605 30.9046 32.1106 30.9569 32.1866 31.4899C32.2627 32.0232 32.4911 36.8211 35.7659 39.4106C36.0646 39.6468 33.329 39.0295 33.329 39.0295L30.8918 35.2218" fill="#F7E4CD"/>
<path fill-rule="evenodd" clip-rule="evenodd" d="M44.6767 30.4239C44.6767 30.4239 44.8543 28.1154 45.4759 28.2929C46.0976 28.4705 46.0976 29.0921 46.0976 29.0921C46.0976 29.0921 44.5879 30.0689 44.6767 30.4239Z" fill="#F7E4CD"/>
<path d="M50.9974 21.9705C50.9974 21.9705 49.7422 22.2355 49.6266 23.3413C49.511 24.4473 50.9974 23.5698 51.2259 23.4937" fill="#F7E4CD"/>
<path d="M41.7824 22.0468C41.7824 22.0468 40.1068 22.2752 40.1068 23.3413C40.1068 24.4076 42.0109 24.3315 42.544 23.8745" fill="#F7E4CD"/>
<path fill-rule="evenodd" clip-rule="evenodd" d="M31.4249 26.9968C31.4249 26.9968 28.5308 25.2451 28.2263 26.9207C27.9217 28.5961 27.2361 29.8148 28.6833 31.5663L27.6932 31.2617L26.7794 28.9009L26.4748 26.6162L28.2263 24.7882L30.2064 24.9406L31.3488 25.8545L31.4249 26.9968Z" fill="#F7E4CD"/>
<path fill-rule="evenodd" clip-rule="evenodd" d="M32.7957 22.1989C32.7957 22.1989 34.0904 15.4972 40.6401 14.2024C46.0323 13.1366 48.8649 14.4309 49.9311 15.6493C49.9311 15.6493 45.1332 9.93779 40.5638 11.6893C35.9943 13.4409 32.6436 16.6395 32.7196 18.6956C32.8493 22.1976 32.7957 22.1989 32.7957 22.1989Z" fill="#F7E4CD"/>
<path fill-rule="evenodd" clip-rule="evenodd" d="M50.4644 16.4108C50.4644 16.4108 48.256 16.3348 48.1797 18.3149C48.1797 18.3149 48.1794 18.6195 48.3318 18.924C48.3318 18.924 50.0837 16.9439 51.1498 18.0101" fill="#F7E4CD"/>
<path fill-rule="evenodd" clip-rule="evenodd" d="M40.7936 19.1303C40.7936 19.1303 40.4134 16.091 37.8221 17.858C36.1467 19.0003 36.2991 20.5996 36.6036 20.9042C36.9082 21.209 36.8254 21.8224 37.0573 21.4013C37.289 20.9803 37.2127 19.6094 38.0506 19.2288C38.8883 18.8479 40.2617 18.4225 40.7936 19.1303Z" fill="#F7E4CD"/>
<path fill-rule="evenodd" clip-rule="evenodd" d="M33.6335 39.7149L26.4748 42.9135C26.4748 42.9135 29.445 54.7179 27.9217 58.3735L26.8555 57.9928L26.7794 53.4995L24.7995 44.97L23.9617 42.609L31.4249 37.5828L33.6335 39.7149Z" fill="#49728B"/>
<path fill-rule="evenodd" clip-rule="evenodd" d="M34.3696 46.244L35.3852 47.4832V52.0526H34.1666C34.1666 52.0526 34.0144 48.854 34.0144 48.4731C34.0144 48.0923 34.1666 46.7214 34.1666 46.7214" fill="#49728B"/>
<path fill-rule="evenodd" clip-rule="evenodd" d="M34.395 52.738L30.968 52.8902L31.9582 53.5756L34.395 53.9564" fill="#49728B"/>
<path fill-rule="evenodd" clip-rule="evenodd" d="M46.1234 51.9763L48.9412 51.9002L49.6266 58.9067L46.7325 59.2874L46.1234 51.9763Z" fill="#335061"/>
<path fill-rule="evenodd" clip-rule="evenodd" d="M46.8849 51.9763L51.1498 51.7478C51.1498 51.7478 52.9013 47.3307 52.9013 47.1023C52.9013 46.8738 54.4245 40.7051 54.4245 40.7051L50.9974 37.1259L50.312 36.5165L48.4842 38.3443V45.4269L46.8849 51.9763Z" fill="#335061"/>
<path fill-rule="evenodd" clip-rule="evenodd" d="M48.7888 51.4432L46.1234 51.9763L46.5041 54.1088C47.494 54.5658 49.1696 53.3471 49.1696 53.3471" fill="#49728B"/>
<path fill-rule="evenodd" clip-rule="evenodd" d="M48.8651 38.1158L54.196 42.0759L54.3484 40.2482L50.312 36.5165L48.8651 38.1158Z" fill="#49728B"/>
<path fill-rule="evenodd" clip-rule="evenodd" d="M37.038 66.98L35.4613 60.5819L34.6771 55.861L34.5474 52.3569L41.6836 51.977L46.1234 51.9763L45.7197 59.9735L46.4051 66.1422L46.329 67.2846L40.5413 67.7415L37.038 66.98Z" fill="white"/>
<path fill-rule="evenodd" clip-rule="evenodd" d="M45.1332 51.9002C45.1332 51.9002 44.7526 59.8206 45.895 65.4561C45.895 65.4561 43.6102 66.9032 40.2592 67.2839L46.6565 67.0554L47.4179 66.5984L46.5041 54.1088L46.2756 51.443" fill="#DCD9D8"/>
<path fill-rule="evenodd" clip-rule="evenodd" d="M49.7563 58.2981L52.7265 57.4603L58.3619 57.1557L59.1998 54.5665L57.6765 50.0731L55.9251 49.8446L53.488 50.6062L51.1498 51.7478L49.9085 51.5201L48.9412 51.9002" fill="white"/>
<path fill-rule="evenodd" clip-rule="evenodd" d="M49.7027 56.7742C49.7027 56.7742 51.6826 55.8605 51.9874 55.9366L51.1498 51.7478L52.1398 51.3672C52.1398 51.3672 52.8252 55.3272 52.8252 55.7842C52.8252 55.7842 57.0898 56.0126 57.4707 56.0126C57.4707 56.0126 58.3846 54.261 58.1561 52.4332L58.9939 54.8703L59.07 56.2411L57.8515 58.0689L56.4807 58.3735L54.196 58.2974L53.4345 57.3074L50.7689 57.6881L49.9311 57.9928" fill="#DCD9D8"/>
<path d="M46.7099 51.3679L45.0345 47.103L43.2828 44.5898C43.2828 44.5898 43.6635 43.5235 44.1967 43.5235C44.73 43.5235 45.9484 43.5235 45.9484 43.5235L47.6238 44.1329L47.4716 46.9506L46.7099 51.3679Z" fill="white"/>
<path fill-rule="evenodd" clip-rule="evenodd" d="M47.0373 49.92C47.0373 49.92 44.9048 45.8077 44.9048 45.1985C44.9048 45.1985 45.2854 44.2846 45.8186 44.513C46.3519 44.7415 47.4943 45.3506 47.4943 45.3506V43.9037L44.9048 43.3705L43.1533 43.5989L46.1234 50.6055L46.7325 50.6818" fill="#DCD9D8"/>
<path d="M37.7235 39.8682L35.6137 39.6388L33.6335 39.0295V39.7149L34.601 40.7819L37.6473 42.1527" fill="white"/>
<path fill-rule="evenodd" clip-rule="evenodd" d="M34.3192 40.0965C34.3192 40.0965 36.6802 41.0867 37.4417 40.8582L37.5175 41.7712L35.3855 41.3151L34.0907 40.4012L34.3192 40.0965Z" fill="#DCD9D8"/>
<path fill-rule="evenodd" clip-rule="evenodd" d="M49.7481 43.7828C48.4559 43.7449 47.2884 43.5914 46.2662 43.3031C46.3357 42.884 46.2057 42.4728 46.3101 42.171C46.595 41.9658 47.0725 41.969 47.5032 41.9208C47.1308 41.7378 46.6076 41.6654 46.1778 41.7712C46.1678 41.4803 46.0373 41.3 45.9582 41.0725C46.6848 40.8132 48.3999 39.1131 49.3647 39.6761C49.8244 39.9438 50.0198 41.4732 50.0554 42.2169C50.0851 42.8338 49.9994 43.4561 49.7481 43.7828Z" fill="#D33833"/>
<path fill-rule="evenodd" clip-rule="evenodd" d="M43.5687 41.6704C43.5652 41.7682 43.5611 41.8667 43.5572 41.9654C43.1538 42.2304 42.5024 42.2272 42.0596 42.4499C42.7124 42.4785 43.2262 42.6357 43.6708 42.8573C43.661 43.1036 43.6516 43.3497 43.642 43.596C42.9024 44.1022 42.2269 44.8562 41.3561 45.331C40.9444 45.5555 39.4995 46.1333 39.0615 46.0312C38.8137 45.9737 38.7913 45.6661 38.6923 45.3762C38.4812 44.7554 37.9952 43.7673 37.9529 42.8329C37.8989 41.6526 37.7797 39.6745 39.0517 39.9176C40.0778 40.1134 41.2713 40.5861 42.0658 41.0202C42.5513 41.2857 42.8321 41.6137 43.5687 41.6704Z" fill="#D33833"/>
<path fill-rule="evenodd" clip-rule="evenodd" d="M44.3032 43.0787C44.1903 42.4358 44.0599 42.2523 44.1104 41.6914C45.825 40.5481 46.147 43.6551 44.3032 43.0787Z" fill="#D33833"/>
<path fill-rule="evenodd" clip-rule="evenodd" d="M46.786 43.5998C46.786 43.5998 46.2527 42.8381 46.6336 42.6096C47.0145 42.3812 47.3953 42.6099 47.6238 42.229C47.8523 41.8481 47.6238 41.6197 47.6999 41.1627C47.776 40.7058 48.157 40.6295 48.5377 40.5534C48.9183 40.4773 49.9848 40.3249 50.137 40.7058L49.68 39.335L48.7662 39.0304L45.8721 40.7058L45.7197 41.5436V43.219" fill="#EF3D3A"/>
<path fill-rule="evenodd" clip-rule="evenodd" d="M38.7895 46.113C38.6981 44.9245 38.6012 43.7376 38.4935 42.5502C38.3323 40.7773 38.9194 41.0867 40.4562 41.0867C40.691 41.0867 41.9015 41.3665 41.9881 41.5436C42.4035 42.3919 41.2935 42.2034 42.4665 42.8431C43.4567 43.383 45.2059 42.5153 44.8058 41.3151C44.5819 41.0483 43.6393 41.232 43.3013 41.0567C42.7064 40.7483 42.1115 40.4399 41.5165 40.1314C40.7595 39.7387 39.01 39.1661 38.2029 39.7149C36.158 41.1056 38.332 44.5804 39.0615 46.0312" fill="#EF3D3A"/>
<path fill-rule="evenodd" clip-rule="evenodd" d="M40.7936 19.1303C38.7179 18.6469 37.6865 19.999 37.0573 21.4013C36.4955 21.2652 36.719 20.5012 36.8609 20.1118C37.2325 19.0901 38.7298 17.73 39.9531 17.9144C40.4796 17.9937 41.1921 18.4751 40.7936 19.1303Z" fill="#231F20"/>
<path fill-rule="evenodd" clip-rule="evenodd" d="M50.9072 21.4941C50.9398 21.4955 50.973 21.4966 51.0056 21.498C51.4747 22.4724 51.8807 23.5046 52.4724 24.3648C52.076 25.2881 49.4708 26.1051 49.511 24.4473C50.0744 24.201 51.047 24.3971 51.5464 24.0824C51.2576 23.2899 50.8409 22.6152 50.9072 21.4941Z" fill="#231F20"/>
<path fill-rule="evenodd" clip-rule="evenodd" d="M41.8563 21.5195C42.3013 22.3353 42.4462 23.1926 43.0788 23.8092C43.3637 24.0868 43.9178 24.4252 43.6431 25.1972C43.5789 25.3793 43.1099 25.7852 42.8392 25.865C41.8501 26.157 39.5455 25.9253 40.3259 24.6922C41.1439 24.7304 42.2433 25.2234 42.8547 24.6296C42.3852 23.8791 41.5482 22.3943 41.8563 21.5195Z" fill="#231F20"/>
<path fill-rule="evenodd" clip-rule="evenodd" d="M50.5359 29.8116C49.0467 30.7682 47.3862 31.8084 44.9461 31.5672C44.4247 31.1139 44.226 30.1052 44.7325 29.439C44.9961 29.8922 44.8305 30.7259 45.5653 30.8514C46.9498 31.0883 48.5612 30.0044 49.5571 29.6256C50.1747 28.5845 49.5039 28.2016 48.9476 27.5315C47.8086 26.1586 46.2808 24.4569 46.3364 22.4016C46.7967 22.0678 46.8365 22.9111 46.9025 23.0646C47.4972 24.4565 48.9939 26.2365 50.0863 27.4277C50.3545 27.7211 50.7961 28.0026 50.8452 28.1965C50.9869 28.7606 50.4767 29.4364 50.5359 29.8116Z" fill="#231F20"/>
<path fill-rule="evenodd" clip-rule="evenodd" d="M30.9037 28.8045C30.437 28.5381 30.3258 27.3647 29.7779 27.3313C28.9947 27.2838 29.1375 28.8536 29.1407 29.7716C28.6016 29.2822 28.5068 27.7755 28.9028 27.0016C28.4515 26.78 28.25 27.2461 27.9996 27.4104C28.3214 25.0731 31.4187 26.3263 30.9037 28.8045Z" fill="#231F20"/>
<path fill-rule="evenodd" clip-rule="evenodd" d="M51.4841 30.7849C50.7909 32.1043 49.8103 33.5574 47.7762 33.5996C47.7348 33.1735 47.7031 32.5252 47.7785 32.2686C49.3335 32.1192 50.2935 31.3277 51.4841 30.7849Z" fill="#231F20"/>
<path fill-rule="evenodd" clip-rule="evenodd" d="M41.739 31.6403C43.0363 32.3225 45.4207 32.3958 47.184 32.3442C47.2786 32.7305 47.2763 33.2078 47.2799 33.6789C45.0133 33.792 42.3333 33.2311 41.739 31.6403Z" fill="#231F20"/>
<path fill-rule="evenodd" clip-rule="evenodd" d="M41.4924 32.9124C42.3895 35.1649 45.473 34.9056 48.0732 34.8434C47.9587 35.1359 47.7106 35.4813 47.4022 35.6063C46.5689 35.9454 44.2708 36.2026 43.114 35.5883C42.3804 35.1983 41.909 34.317 41.5071 33.8005C41.313 33.551 40.3464 32.9138 41.4924 32.9124Z" fill="#231F20"/>
<path fill-rule="evenodd" clip-rule="evenodd" d="M50.4276 45.3373C49.3748 47.1405 48.3675 48.9924 47.1184 50.5829C47.6421 49.0432 47.8662 46.4662 47.9453 44.5016C49.0408 43.9889 49.9789 44.617 50.4276 45.3373Z" fill="#81B0C4"/>
<path fill-rule="evenodd" clip-rule="evenodd" d="M56.0928 51.818C54.9141 52.0539 54.0859 53.1995 52.936 53.126C53.5679 52.2351 54.6753 51.8596 56.0928 51.818Z" fill="#231F20"/>
<path fill-rule="evenodd" clip-rule="evenodd" d="M56.6128 53.6626C55.6521 53.7641 54.5236 53.9196 53.5492 53.8395C54.0105 53.1349 55.7878 53.378 56.6128 53.6626Z" fill="#231F20"/>
<path fill-rule="evenodd" clip-rule="evenodd" d="M56.9457 55.253C55.8659 55.2764 54.5239 55.2548 53.4976 55.1687C54.1046 54.5167 56.2454 54.9268 56.9457 55.253Z" fill="#231F20"/>
<path fill-rule="evenodd" clip-rule="evenodd" d="M48.396 59.6052C48.5509 60.9612 49.0885 62.3351 49.0211 63.8202C48.4241 64.0215 48.0812 64.1976 47.2813 64.1965C47.2249 62.9344 47.056 61.005 47.1065 59.8019C47.5 59.8279 48.0801 59.5208 48.396 59.6052Z" fill="#DCD9D8"/>
<path fill-rule="evenodd" clip-rule="evenodd" d="M46.6553 39.6203C46.1131 39.9742 45.6514 40.4161 45.1307 40.794C43.976 40.8511 43.3459 40.714 42.4976 40.051C42.5115 39.9978 42.5967 40.0215 42.5999 39.9562C43.836 40.507 45.4072 39.7318 46.6553 39.6203Z" fill="#F0D6B7"/>
<path fill-rule="evenodd" clip-rule="evenodd" d="M40.1666 48.0459C40.5062 46.5743 41.8369 45.8121 43.0452 45.0017C44.2925 46.5846 45.051 48.6203 45.8863 50.5847C43.9127 49.9897 41.8962 49.0245 40.1666 48.0459Z" fill="#81B0C4"/>
<path fill-rule="evenodd" clip-rule="evenodd" d="M47.1065 59.8019C47.056 61.005 47.2249 62.9344 47.2813 64.1965C48.0812 64.1976 48.4241 64.0215 49.0211 63.8202C49.0885 62.3351 48.5509 60.9612 48.396 59.6052C48.0801 59.5208 47.5 59.8279 47.1065 59.8019ZM34.6516 52.9594C35.1791 57.8083 35.943 61.8843 37.3442 66.1781C40.454 67.1223 44.2029 67.2046 46.9516 66.3526C46.4469 63.9292 46.6674 60.9788 46.3725 58.3927C46.1502 56.4489 46.2635 54.4931 45.9587 52.51C42.628 51.8171 37.9203 52.348 34.6516 52.9594ZM46.7462 52.5404C46.7181 54.6229 46.8395 56.6771 46.9985 58.7622C47.7981 58.6421 48.3407 58.562 49.0837 58.3991C48.8425 56.3918 48.8722 54.133 48.3807 52.3574C47.8127 52.3628 47.3126 52.3508 46.7462 52.5404ZM50.8027 52.2048C50.4233 52.1178 49.9814 52.2014 49.6188 52.2084C49.7892 53.906 50.2028 55.7792 50.3483 57.5611C50.9188 57.5788 51.2236 57.3098 51.6929 57.2193C51.718 55.6551 51.5562 53.5002 50.8027 52.2048ZM56.945 57.8167C58.1342 57.5279 58.882 56.0714 58.5493 54.5756C58.3261 53.5703 57.9285 51.6774 57.5031 51.0343C57.1887 50.5586 56.3363 49.9358 55.6557 50.3717C54.5485 51.0807 52.5981 51.2865 51.7907 52.1447C52.1955 53.4927 52.3212 55.3442 52.4882 57.0522C53.8713 57.1384 55.5732 56.6715 56.7236 57.167C55.9205 57.4271 54.8784 57.4292 54.1846 57.8083C54.7516 58.0822 56.0793 58.0268 56.945 57.8167ZM45.8863 50.5847C45.051 48.6203 44.2925 46.5846 43.0452 45.0017C41.8369 45.8121 40.5062 46.5743 40.1666 48.0459C41.8962 49.0245 43.9127 49.9897 45.8863 50.5847ZM47.9453 44.5016C47.8662 46.4662 47.6421 49.0432 47.1184 50.5829C48.3675 48.9924 49.3748 47.1405 50.4276 45.3373C49.9789 44.617 49.0408 43.9889 47.9453 44.5016ZM45.6112 43.6723C45.138 43.6213 44.7364 44.2163 44.1211 43.959C43.9801 44.1148 43.852 44.2837 43.7083 44.4358C45.0672 46.0735 45.6848 48.397 46.7344 50.3216C47.2975 48.4729 47.2327 46.4475 47.3567 44.4296C46.5829 44.4788 46.1536 43.7298 45.6112 43.6723ZM44.3032 43.0787C44.1903 42.4358 44.0599 42.2523 44.1104 41.6914C45.825 40.5481 46.147 43.6551 44.3032 43.0787ZM42.0658 41.0202C41.2713 40.5861 40.0778 40.1134 39.0517 39.9176C37.7797 39.6742 37.8989 41.6526 37.9529 42.8329C37.9952 43.7673 38.4812 44.7554 38.6923 45.3762C38.7913 45.6661 38.8137 45.9737 39.0615 46.0312C39.4995 46.1333 40.9444 45.5555 41.3561 45.331C42.2269 44.8562 42.9024 44.1022 43.642 43.596C43.6516 43.3497 43.661 43.1036 43.6708 42.8573C43.2262 42.6357 42.7124 42.4785 42.0596 42.4499C42.5024 42.2272 43.1538 42.2304 43.5572 41.9654C43.5611 41.8667 43.5652 41.7682 43.5687 41.6704C42.8321 41.6137 42.5513 41.2857 42.0658 41.0202ZM34.4774 39.6418C33.8181 40.3112 36.3268 41.2237 37.1255 41.2729C37.1211 40.8493 37.3669 40.4499 37.3174 40.146C36.3687 39.9795 35.122 40.0894 34.4774 39.6418ZM42.5999 39.9562C42.5967 40.0215 42.5115 39.9978 42.4976 40.051C43.3459 40.714 43.976 40.8511 45.1307 40.794C45.6514 40.4161 46.1131 39.9742 46.6553 39.6203C45.4072 39.7318 43.836 40.507 42.5999 39.9562ZM50.0554 42.2169C50.0198 41.4732 49.8244 39.9438 49.3647 39.6761C48.3999 39.1129 46.6848 40.8132 45.9582 41.0725C46.0373 41.3 46.1678 41.4803 46.1778 41.7712C46.6076 41.6654 47.1308 41.7378 47.5032 41.9208C47.0725 41.969 46.595 41.9658 46.3101 42.171C46.2057 42.4728 46.3357 42.884 46.2662 43.3031C47.2884 43.5914 48.4559 43.7449 49.7481 43.7828C49.9994 43.4561 50.0851 42.8338 50.0554 42.2169ZM33.3674 40.2893C33.1603 40.1417 31.7596 38.3192 31.5677 38.3948C29.0331 39.3944 26.6632 41.1228 24.5453 42.7575C26.5645 47.0902 27.3796 52.3985 27.5237 57.5148C29.8368 58.5967 31.8685 60.1563 35.0073 60.3191C34.644 57.7493 34.3125 55.4565 34.1063 53.0371C33.3177 52.7046 32.1862 53.0522 31.4481 52.934C31.4419 52.0446 32.5753 52.5445 32.6697 51.9464C32.7409 51.494 32.0461 51.4597 32.2723 50.7474C32.8493 50.9571 33.1523 51.4204 33.7676 51.5943C34.3299 50.3642 33.7598 48.1878 33.8408 47.1596C33.8562 46.9666 33.9372 46.0902 34.3696 46.244C34.7523 46.3801 34.3477 48.5748 34.3897 49.5479C34.4279 50.4444 34.2814 51.3118 34.6445 51.8746C37.6775 51.4618 40.7597 51.1949 44.0414 51.1049C43.3194 50.7951 42.4617 50.5019 41.5214 49.9719C41.0116 49.6845 39.4047 49.0866 39.2576 48.6024C39.0229 47.8309 39.8734 47.4199 40.0189 46.7585C38.4879 47.5935 38.1892 45.9581 37.827 44.7995C37.4989 43.7502 37.3121 42.9663 37.2316 42.3611C35.9127 41.7323 34.5026 41.0956 33.3674 40.2893ZM48.7159 38.6153C50.8277 37.5913 51.2083 42.4424 50.3805 44.0051C50.5085 44.4712 50.9485 44.6497 51.1281 45.0687C49.9496 47.1797 48.6407 49.1503 47.4383 51.2365C48.3327 50.6797 49.6104 51.1369 50.6629 50.7201C51.0477 50.568 51.3262 49.6872 51.6175 48.9826C52.4187 47.0441 53.26 44.6001 53.6342 42.7502C53.7187 42.3286 53.949 41.4102 53.8974 41.035C53.8053 40.3633 52.8939 39.8652 52.4304 39.4499C51.5764 38.6827 51.0385 38.0075 50.1477 37.2901C49.7865 37.8234 49.0113 38.1816 48.7159 38.6153ZM28.5378 19.8879C27.5315 20.9951 27.7422 23.0696 27.864 24.5456C29.6828 23.4014 32.0969 24.636 32.0742 26.5822C32.9426 26.5591 32.3986 25.4976 32.2415 24.8138C31.7282 22.5802 33.1063 20.1537 32.304 18.1111C30.7462 18.2292 29.4664 18.8655 28.5378 19.8879ZM35.7378 13.462C33.4597 14.1076 30.5402 15.7629 29.6041 17.8093C30.329 17.704 30.8321 17.3384 31.5472 17.2932C31.8174 17.2756 32.1715 17.4065 32.482 17.3293C33.101 17.1758 33.6233 15.788 34.0903 15.2717C34.5454 14.7674 35.0925 14.552 35.4669 14.0923C35.7074 13.9763 36.0631 13.9842 36.0767 13.623C35.9725 13.5115 35.8627 13.4265 35.7378 13.462ZM47.5962 14.0692C45.2317 12.7352 41.2295 11.7317 38.7144 12.9856C36.6849 13.9975 33.9417 15.6717 33.0064 17.7933C33.8801 19.8407 32.7476 21.7166 32.6753 23.7953C32.6369 24.9013 33.196 25.8668 33.2389 27.0709C32.9399 27.5641 32.0264 27.6249 31.3941 27.5911C31.1813 26.5259 30.8087 25.3288 29.7118 25.2086C28.1598 25.0388 27.0251 26.3233 26.9545 27.6656C26.8711 29.2441 28.167 31.8603 30.0037 31.6787C30.7132 31.6085 30.8875 30.8973 31.6605 30.9046C32.0795 31.7406 31.0142 32.0031 30.9046 32.601C30.8761 32.7554 30.993 33.3591 31.061 33.6421C31.3946 35.0205 32.1383 36.8044 32.8703 37.8538C33.7993 39.1849 35.6246 39.3855 37.5883 39.5159C37.939 38.7604 39.231 38.8225 40.0729 39.0201C39.064 38.6205 38.126 37.6518 37.3486 36.7944C36.4557 35.8106 35.5512 34.7553 35.5055 33.4694C37.1929 35.8103 38.587 37.8547 41.6553 38.8844C43.9769 39.663 46.6884 38.5275 48.4723 37.2748C49.2126 36.7542 49.6545 35.928 50.1806 35.1718C52.1494 32.3399 53.068 28.2977 52.8661 24.3799C52.7829 22.7642 52.7866 21.1539 52.2444 20.0668C51.6778 18.9302 49.7614 17.9133 48.6396 18.9414C48.4317 17.836 49.5724 17.1525 50.9124 17.5502C49.9569 16.3172 48.9542 14.8355 47.5962 14.0692ZM52.0013 50.5258C53.849 49.6072 57.3012 48.0535 58.4595 50.5291C58.887 51.4417 59.3885 52.9843 59.6099 53.9263C59.9226 55.2553 59.2708 58.0486 57.9048 58.4946C56.6982 58.8884 55.2904 58.8644 53.8371 58.5725C53.666 58.4302 53.4754 58.182 53.3422 57.9234C52.3045 57.8832 51.3328 57.9791 50.513 58.4057C50.5907 59.1731 50.0716 59.2963 49.585 59.4543C49.2242 60.8848 50.3067 62.7528 50.0476 64.0572C49.8628 64.9864 48.7195 65.1301 47.8792 65.3039C47.8518 65.8203 47.916 66.2514 47.9734 66.6882C47.7812 67.3962 46.9194 67.7993 46.1029 67.898C43.4163 68.221 39.3371 68.3662 36.7529 67.4369C36.0318 65.6682 35.4638 63.5168 34.8631 61.4971C32.3428 61.7663 30.3044 60.4096 28.3828 59.5208C27.7174 59.2124 26.797 59.0425 26.5485 58.5129C26.3075 58.0002 26.4061 57.0175 26.3463 56.0892C26.1942 53.7184 26.0639 51.4316 25.4378 49.0041C25.1567 47.9148 24.6667 46.9536 24.3249 45.9039C24.009 44.9311 23.457 43.7289 23.313 42.7588C23.0996 41.3211 24.4534 41.2411 25.3191 40.6181C26.6574 39.6546 27.7078 39.1218 29.1571 38.2522C29.5864 37.9948 30.881 37.3429 31.0282 37.0427C31.3209 36.4475 30.5258 35.6084 30.3132 35.1418C29.9769 34.4041 29.8015 33.7774 29.7533 33.0495C28.5375 32.8573 27.6159 32.1338 27.0591 31.3179C26.1382 29.9676 25.4996 27.4695 26.2963 25.5693C26.3588 25.4197 26.6705 25.1254 26.7164 24.8956C26.8071 24.443 26.5458 23.8412 26.5295 23.3598C26.4458 20.89 26.9474 18.762 28.6101 18.0172C29.285 15.3283 31.7009 14.4343 33.9769 13.098C34.8277 12.5986 35.7656 12.2794 36.7342 11.923C40.2088 10.6442 45.5399 10.885 48.4237 13.066C49.6465 13.9909 51.601 15.9436 52.3001 17.3574C54.1467 21.0899 54.0155 27.3279 52.724 31.8683C52.5503 32.4779 52.2985 33.3739 51.9469 34.1062C51.7018 34.6175 50.9398 35.6406 51.0324 36.092C51.1276 36.5588 52.7697 37.8056 53.1217 38.1451C53.7557 38.7567 54.9602 39.5685 55.0578 40.3402C55.1627 41.1616 54.6959 42.2852 54.4594 43.0778C53.6689 45.7228 52.8976 48.1677 52.0013 50.5258Z" fill="#231F20"/>
<path fill-rule="evenodd" clip-rule="evenodd" d="M39.6746 32.2165C39.7748 32.0831 40.3259 31.8804 41.097 32.2517C41.097 32.2517 40.1831 32.4041 40.2592 33.9277L39.8783 33.8514C39.8783 33.8514 39.4848 32.4699 39.6746 32.2165Z" fill="#F7E4CD"/>
<path fill-rule="evenodd" clip-rule="evenodd" d="M46.3519 45.3127C46.3519 45.5439 46.1643 45.7314 45.9329 45.7314C45.7017 45.7314 45.5141 45.5439 45.5141 45.3127C45.5141 45.0815 45.7017 44.8937 45.9329 44.8937C46.1643 44.8937 46.3519 45.0815 46.3519 45.3127Z" fill="#1D1919"/>
<path fill-rule="evenodd" clip-rule="evenodd" d="M46.7707 47.2547C46.7707 47.4859 46.5831 47.6734 46.3517 47.6734C46.1205 47.6734 45.9329 47.4859 45.9329 47.2547C45.9329 47.0235 46.1205 46.8357 46.3517 46.8357C46.5831 46.8357 46.7707 47.0235 46.7707 47.2547Z" fill="#1D1919"/>
</svg>
